{
  "version": "1.1.6",
  "modules": [
    {
      "id": 1,
      "plugin": "Core",
      "version": "1.1.6",
      "model": "AudioInterface",
      "params": [],
      "leftModuleId": 2,
      "rightModuleId": 8,
      "data": {
        "audio": {
          "driver": 5,
          "deviceName": "Apple Inc.: Built-in Output",
          "offset": 0,
          "maxChannels": 8,
          "sampleRate": 44100,
          "blockSize": 256
        }
      },
      "pos": [
        64,
        0
      ]
    },
    {
      "id": 2,
      "plugin": "Fundamental",
      "version": "1.4.0",
      "model": "VCMixer",
      "params": [
        {
          "id": 0,
          "value": 1.0
        },
        {
          "id": 1,
          "value": 1.0
        },
        {
          "id": 2,
          "value": 1.0
        },
        {
          "id": 3,
          "value": 1.0
        },
        {
          "id": 4,
          "value": 1.0
        }
      ],
      "leftModuleId": 7,
      "rightModuleId": 1,
      "pos": [
        54,
        0
      ]
    },
    {
      "id": 4,
      "plugin": "Fundamental",
      "version": "1.4.0",
      "model": "VCF",
      "params": [
        {
          "id": 0,
          "value": 0.879000902
        },
        {
          "id": 1,
          "value": 0.5
        },
        {
          "id": 2,
          "value": 1.0
        },
        {
          "id": 3,
          "value": 1.0
        },
        {
          "id": 4,
          "value": 0.13199994
        }
      ],
      "leftModuleId": 17,
      "pos": [
        15,
        0
      ]
    },
    {
      "id": 6,
      "plugin": "Fundamental",
      "version": "1.4.0",
      "model": "ADSR",
      "params": [
        {
          "id": 0,
          "value": 0.403500199
        },
        {
          "id": 1,
          "value": 0.743000448
        },
        {
          "id": 2,
          "value": 0.5
        },
        {
          "id": 3,
          "value": 0.576500058
        }
      ],
      "leftModuleId": 26,
      "rightModuleId": 7,
      "pos": [
        33,
        0
      ]
    },
    {
      "id": 7,
      "plugin": "Fundamental",
      "version": "1.4.0",
      "model": "Scope",
      "params": [
        {
          "id": 0,
          "value": 0.0
        },
        {
          "id": 1,
          "value": 0.0
        },
        {
          "id": 2,
          "value": 0.0
        },
        {
          "id": 3,
          "value": 0.0
        },
        {
          "id": 4,
          "value": 14.0
        },
        {
          "id": 5,
          "value": 0.0
        },
        {
          "id": 6,
          "value": 0.0
        },
        {
          "id": 7,
          "value": 0.0
        }
      ],
      "leftModuleId": 6,
      "rightModuleId": 2,
      "data": {
        "lissajous": 0,
        "external": 0
      },
      "pos": [
        41,
        0
      ]
    },
    {
      "id": 8,
      "plugin": "Core",
      "version": "1.1.6",
      "model": "Notes",
      "params": [],
      "leftModuleId": 1,
      "text": "patch instructions:\n\n1. Choose an audio driver and device in the AUDIO-8 module.\n\n2. Drag knobs up/down. Hold Ctrl (Cmd on Mac) while dragging to fine-tune. Right-click knobs to edit, or double-click to initialize.\n\n3. Drag ports to create and move 3ables. Stack multiple cables on outputs by holding Ctrl (Cmd on Mac) and dragging from an output.\n\n4. Right-click on an empty rack space to add new modules.",
      "pos": [
        74,
        0
      ]
    },
    {
      "id": 17,
      "plugin": "VCV-Prototype",
      "version": "1.2.0",
      "model": "Prototype",
      "params": [
        {
          "id": 0,
          "value": 0.452500761
        },
        {
          "id": 1,
          "value": 0.0
        },
        {
          "id": 2,
          "value": 0.0
        },
        {
          "id": 3,
          "value": 0.0
        },
        {
          "id": 4,
          "value": 0.0
        },
        {
          "id": 5,
          "value": 0.0
        },
        {
          "id": 6,
          "value": 0.0
        },
        {
          "id": 7,
          "value": 0.0
        },
        {
          "id": 8,
          "value": 0.0
        },
        {
          "id": 9,
          "value": 0.0
        },
        {
          "id": 10,
          "value": 0.0
        },
        {
          "id": 11,
          "value": 0.0
        }
      ],
      "rightModuleId": 4,
      "data": {
        "path": "/Users/pacifist/Documents/GitHub/gitShow5/module5.js",
        "script": "config.frameDivider = 1\nconfig.bufferSize = 16\n\nvar phase = 0\nvar phase2 = 0\n\n// this is where the synthesis calculation occurs\nfunction process(block) {\n\t// Knob ranges from -5 to 5 octaves\n\tvar pitch = block.knobs[0] * 10 - 5\n\t// Input follows 1V/oct standard\n\tpitch += block.inputs[0][0]\t\t\n\n\t// The relationship between 1V/oct pitch and frequency is `freq = 2^pitch`.\n\t// Default frequency is middle C (C4) in Hz.\n\t// https://vcvrack.com/manual/VoltageStandards.html#pitch-and-frequencies\n\tvar freq = 261.6256 * Math.pow(2, pitch)\n\n\tdisplay(\"Freq: \" + freq.toFixed(3) + \" Hz\")\n\n\t// Set all samples in output buffer, \n\tvar deltaPhase = config.frameDivider * block.sampleTime * freq\n\tfor (var i = 0; i < block.bufferSize; i++) {\n\t\t// Accumulate phase\n\t\tphase += deltaPhase\n\t\t// Wrap phase around range [0, 1]\n\t\tphase %= 1\n\t\t// Convert phase to sine output\n\t\tblock.outputs[0][i] = Math.sin(2 * Math.PI * phase) * 5\n\t\t// Output a signal that is only in the positive amplitude domain\n\t\tblock.outputs[1][i] = Math.abs(Math.cos(2 * Math.PI * phase) * 5)\t\n\t}\n\n\n\n}"
      },
      "pos": [
        0,
        0
      ]
    },
    {
      "id": 23,
      "plugin": "Core",
      "version": "1.1.6",
      "model": "Notes",
      "params": [],
      "rightModuleId": 28,
      "text": "recording! this little module simplifies things so we don't have to use jack+daw\n>>>>>>>>>>>>>>>>>>>>>>>>>>>>>>>>>>>\n\nremember to save the recording to the git repo, but don't let it be larger than 20MB~",
      "pos": [
        58,
        1
      ]
    },
    {
      "id": 24,
      "plugin": "Fundamental",
      "version": "1.4.0",
      "model": "Scope",
      "params": [
        {
          "id": 0,
          "value": 0.0
        },
        {
          "id": 1,
          "value": 0.0
        },
        {
          "id": 2,
          "value": 0.0
        },
        {
          "id": 3,
          "value": 0.0
        },
        {
          "id": 4,
          "value": 14.0
        },
        {
          "id": 5,
          "value": 0.0
        },
        {
          "id": 6,
          "value": 0.0
        },
        {
          "id": 7,
          "value": 0.0
        }
      ],
      "data": {
        "lissajous": 0,
        "external": 0
      },
      "pos": [
        0,
        1
      ]
    },
    {
      "id": 26,
      "plugin": "Fundamental",
      "version": "1.4.0",
      "model": "LFO2",
      "params": [
        {
          "id": 0,
          "value": 1.0
        },
        {
          "id": 1,
          "value": 0.0
        },
        {
          "id": 2,
          "value": -6.37099552
        },
        {
          "id": 3,
          "value": 0.232500702
        },
        {
          "id": 4,
          "value": 0.5
        }
      ],
      "rightModuleId": 6,
      "pos": [
        27,
        0
      ]
    },
    {
      "id": 27,
      "plugin": "Fundamental",
      "version": "1.4.0",
      "model": "LFO",
      "params": [
        {
          "id": 0,
          "value": 1.0
        },
        {
          "id": 1,
          "value": 1.0
        },
        {
          "id": 2,
          "value": 10.0
        },
        {
          "id": 3,
          "value": 0.0
        },
        {
          "id": 4,
          "value": 0.0
        },
        {
          "id": 5,
          "value": 0.5
        },
        {
          "id": 6,
          "value": 0.0
        }
      ],
      "pos": [
        30,
        1
      ]
    },
    {
      "id": 28,
      "plugin": "VCV-Recorder",
      "version": "1.0.1",
      "model": "Recorder",
      "params": [
        {
          "id": 0,
          "value": 1.0
        },
        {
          "id": 1,
          "value": 0.0
        }
      ],
      "leftModuleId": 23,
      "data": {
        "format": "wav",
        "path": "/Users/mp/_gitshows/gitShow5/recording5.wav",
        "incrementPath": true,
        "sampleRate": 44100,
        "depth": 16,
        "bitRate": 320000
      },
      "pos": [
        74,
        1
      ]
    }
  ],
  "cables": [
    {
      "id": 297,
      "outputModuleId": 2,
      "outputId": 1,
      "inputModuleId": 7,
      "inputId": 0,
      "color": "#c9b70e"
    },
    {
      "id": 312,
      "outputModuleId": 17,
      "outputId": 0,
      "inputModuleId": 24,
      "inputId": 0,
      "color": "#c91847"
    },
    {
      "id": 315,
      "outputModuleId": 26,
      "outputId": 0,
      "inputModuleId": 6,
      "inputId": 0,
      "color": "#0c8e15"
    },
    {
      "id": 317,
      "outputModuleId": 27,
      "outputId": 1,
      "inputModuleId": 17,
      "inputId": 0,
      "color": "#0986ad"
    },
    {
      "id": 319,
      "outputModuleId": 17,
      "outputId": 0,
      "inputModuleId": 4,
      "inputId": 3,
      "color": "#c9b70e"
    },
    {
      "id": 321,
      "outputModuleId": 27,
      "outputId": 2,
      "inputModuleId": 2,
      "inputId": 5,
      "color": "#c91847"
    },
    {
      "id": 320,
      "outputModuleId": 4,
      "outputId": 1,
      "inputModuleId": 2,
      "inputId": 1,
      "color": "#0c8e15"
    },
    {
      "id": 322,
      "outputModuleId": 4,
      "outputId": 0,
      "inputModuleId": 2,
      "inputId": 2,
      "color": "#0986ad"
    },
    {
      "id": 323,
      "outputModuleId": 2,
      "outputId": 1,
      "inputModuleId": 1,
      "inputId": 0,
      "color": "#c9b70e"
    },
    {
      "id": 324,
      "outputModuleId": 2,
      "outputId": 2,
      "inputModuleId": 1,
      "inputId": 1,
      "color": "#0c8e15"
    },
    {
      "id": 325,
      "outputModuleId": 2,
      "outputId": 1,
      "inputModuleId": 28,
      "inputId": 2,
      "color": "#c91847"
    },
    {
      "id": 326,
      "outputModuleId": 2,
      "outputId": 2,
      "inputModuleId": 7,
      "inputId": 1,
      "color": "#0986ad"
    },
    {
      "id": 327,
      "outputModuleId": 2,
      "outputId": 2,
      "inputModuleId": 28,
      "inputId": 3,
      "color": "#c9b70e"
    }
  ]
}